# xmcd
#
# Track frame offsets: 
#        150
#        17620
#        40761
#        69388
#
# Disc length: 1630 seconds
#
# Revision: 0
# Processed by: cddbd v1.5.2PL0 Copyright (c) Steve Scherf et al.
# Submitted via: ExactAudioCopy v1.1
#
DISCID=27065c04
DTITLE=Ludacris - Money Maker
DYEAR=2005
DGENRE=Rap
TTITLE0=Money Maker Feat. Pharrell [Explicit]
TTITLE1=Sweet Revenge [Explicit]
TTITLE2=Money Maker [Instrumental]
TTITLE3=Money Maker [Video]
EXTD=
EXTT0=
EXTT1=
EXTT2=
EXTT3=
PLAYORDER=
